<?xml version="1.0" encoding="UTF-8"?>
<svg id="Layer_2" data-name="Layer 2" xmlns="http://www.w3.org/2000/svg" viewBox="0 0 299.07 398.81">
  <defs>
    <style>
      .cls-1 {
        fill: #fffffe;
      }

      .cls-1, .cls-2, .cls-3 {
        fill-rule: evenodd;
      }

      .cls-4, .cls-2 {
        fill: #ff906b;
      }

      .cls-3 {
        fill: #ed6b47;
      }
    </style>
  </defs>
  <g id="Layer_1-2" data-name="Layer 1">
    <path class="cls-3" d="m33.17,398.81h232.73c18.24,0,33.17-14.92,33.17-33.17V33.17c0-18.24-14.93-33.17-33.17-33.17H95.5L0,95.5v270.14c0,18.24,14.93,33.17,33.17,33.17Z"/>
    <path class="cls-2" d="m0,95.5h62.33c18.24,0,33.17-14.93,33.17-33.17V0L0,95.5Z"/>
    <rect class="cls-4" x="36.76" y="189.29" width="224.99" height="111.91" rx="27.36" ry="27.36"/>
    <g>
      <path class="cls-1" d="m113.6,247.51c3.16-2.95,4.73-7.05,4.73-12.3s-1.45-9.03-4.34-11.79c-2.89-2.77-7.24-4.15-13.04-4.15h-26.67v51.93h16.12v-19.27h8.78c6.47,0,11.28-1.47,14.44-4.42h0Zm-23.21-6.09v-11.58h4.57c3,0,5.04.57,6.12,1.71,1.09,1.13,1.63,2.51,1.63,4.15s-.63,3.05-1.87,4.12c-1.26,1.08-3.42,1.61-6.52,1.61h-3.93Z"/>
      <path class="cls-1" d="m165.99,247.51c3.16-2.95,4.73-7.05,4.73-12.3s-1.45-9.03-4.34-11.79c-2.89-2.77-7.24-4.15-13.05-4.15h-26.67v51.93h16.12v-19.27h8.78c6.47,0,11.28-1.47,14.44-4.42h0Zm-23.21-6.09v-11.58h4.57c3,0,5.04.57,6.12,1.71,1.09,1.13,1.63,2.51,1.63,4.15s-.63,3.05-1.87,4.12c-1.26,1.08-3.42,1.61-6.52,1.61h-3.93Z"/>
      <polygon class="cls-1" points="207.87 271.21 207.87 232.11 224.24 232.11 224.24 219.28 175.47 219.28 175.47 232.11 191.82 232.11 191.82 271.21 207.87 271.21"/>
    </g>
  </g>
</svg>